<?xml version="1.0" encoding="UTF-8"?>
<svg width="16px" height="16px" viewBox="0 0 16 16" version="1.1" xmlns="http://www.w3.org/2000/svg" xmlns:xlink="http://www.w3.org/1999/xlink">
    <!-- Generator: Sketch 49.1 (51147) - http://www.bohemiancoding.com/sketch -->
    <title>spotify</title>
    <desc>Created with Sketch.</desc>
    <defs></defs>
    <g id="Cat's-Ass-concepts" stroke="none" stroke-width="1" fill="none" fill-rule="evenodd">
        <g id="Concept-02" transform="translate(-1376.000000, -1338.000000)" fill="#FFFFFF" fill-rule="nonzero">
            <g id="Social-Media" transform="translate(1376.000000, 1234.000000)">
                <g id="spotify" transform="translate(0.000000, 104.000000)">
                    <path d="M8,0 C3.6,0 0,3.6 0,8 C0,12.4 3.6,16 8,16 C12.4,16 16,12.4 16,8 C16,3.6 12.4,0 8,0 Z M11.7,11.6 C11.5,11.8 11.3,11.9 11,11.8 C9.1,10.6 6.8,10.4 4,11 C3.7,11.1 3.5,10.9 3.4,10.6 C3.3,10.3 3.5,10.1 3.8,10 C6.8,9.3 9.5,9.6 11.6,10.9 C11.8,11 11.8,11.3 11.7,11.6 Z M12.6,9.4 C12.4,9.7 12,9.8 11.8,9.6 C9.6,8.3 6.4,7.9 3.8,8.7 C3.5,8.7 3.2,8.6 3.1,8.2 C3,7.9 3.2,7.6 3.5,7.5 C6.4,6.6 10,7.1 12.5,8.6 C12.7,8.7 12.8,9.1 12.6,9.4 Z M12.7,7.1 C10.1,5.6 5.9,5.4 3.4,6.2 C3,6.3 2.6,6.1 2.5,5.7 C2.4,5.3 2.6,4.9 3,4.8 C5.8,4 10.5,4.1 13.5,5.9 C13.9,6.1 14,6.6 13.8,6.9 C13.6,7.2 13.1,7.3 12.7,7.1 Z" id="Shape"></path>
                </g>
            </g>
        </g>
    </g>
</svg>