<?xml version="1.0" encoding="UTF-8"?>
<svg width="400px" height="11px" viewBox="0 0 400 11" version="1.1" xmlns="http://www.w3.org/2000/svg" xmlns:xlink="http://www.w3.org/1999/xlink">
    <!-- Generator: Sketch 49.1 (51147) - http://www.bohemiancoding.com/sketch -->
    <title>wave</title>
    <desc>Created with Sketch.</desc>
    <defs></defs>
    <g id="Cat's-Ass-concepts" stroke="none" stroke-width="1" fill="none" fill-rule="evenodd">
        <g id="Concept-02" transform="translate(-520.000000, -602.000000)" stroke="#FFFFFF" stroke-width="3">
            <g id="Section-1" transform="translate(476.000000, 230.000000)">
                <g id="Wavy-Line" transform="translate(44.000000, 374.000000)">
                    <path d="M0,0 C8.33178308,0 8.33178308,7 16.6629756,7 C24.9959398,7 24.9959398,0 33.3283135,0 C41.6612777,0 41.6612777,7 49.9942419,7 C58.3266156,7 58.3266156,0 66.6595798,0 C74.9913629,0 74.9913629,7 83.3237365,7 C91.6561102,7 91.6561102,0 99.9884839,0 C108.320858,0 108.320858,7 116.653231,7 C124.986195,7 124.986195,0 133.31916,0 C141.652714,0 141.652714,7 149.986269,7 C158.319233,7 158.319233,0 166.652198,0 C174.985752,0 174.985752,7 183.319307,7 C191.652271,7 191.652271,0 199.985236,0 C208.3182,0 208.3182,7 216.651755,7 C224.984719,7 224.984719,0 233.318274,0 C241.652419,0 241.652419,7 249.985974,7 C258.317757,7 258.317757,0 266.650131,0 C274.983095,0 274.983095,7 283.316059,7 C291.649023,7 291.649023,0 299.982578,0 C308.316133,0 308.316133,7 316.650869,7 C324.985014,7 324.985014,0 333.31916,0 C341.653896,0 341.653896,7 349.988631,7 C358.322777,7 358.322777,0 366.657513,0 C374.99343,0 374.99343,7 383.328756,7 C391.664083,7 391.664083,0 400,0" id="wave"></path>
                </g>
            </g>
        </g>
    </g>
</svg>